HIERARCHY
ROOT Hips
{
	OFFSET 0.000000 0.000000 0.000000
	CHANNELS 6 Xposition Yposition Zposition Xrotation Yrotation Zrotation
	JOINT LeftUpLeg_virtual
	{
		OFFSET 0.000000 0.000000 0.000000
		CHANNELS 3 Xrotation Yrotation Zrotation
		JOINT LeftUpLeg
		{
			OFFSET 15.427100 -6.655098 0.678600
			CHANNELS 3 Xrotation Yrotation Zrotation
			JOINT LeftLeg
			{
				OFFSET 4.081073 -39.591068 13.024000
				CHANNELS 3 Xrotation Yrotation Zrotation
				JOINT LeftFoot
				{
					OFFSET -4.081074 -37.707932 -15.979700
					CHANNELS 3 Xrotation Yrotation Zrotation
					JOINT LeftToeBase
					{
						OFFSET 5.346399 -15.068900 20.645000
						CHANNELS 3 Xrotation Yrotation Zrotation
						JOINT LeftToe_End
						{
							OFFSET 2.754700 0.931300 11.300900
							CHANNELS 3 Xrotation Yrotation Zrotation
							End Site
							{
								OFFSET 0 0 0
							}
						}
					}
				}
			}
		}
	}
	JOINT RightUpLeg_virtual
	{
		OFFSET 0.000000 0.000000 0.000000
		CHANNELS 3 Xrotation Yrotation Zrotation
		JOINT RightUpLeg
		{
			OFFSET -15.569500 -6.655098 0.678600
			CHANNELS 3 Xrotation Yrotation Zrotation
			JOINT RightLeg
			{
				OFFSET -4.081825 -39.591045 13.023800
				CHANNELS 3 Xrotation Yrotation Zrotation
				JOINT RightFoot
				{
					OFFSET 4.081824 -37.707954 -15.979600
					CHANNELS 3 Xrotation Yrotation Zrotation
					JOINT RightToeBase
					{
						OFFSET -5.346400 -15.068900 20.645000
						CHANNELS 3 Xrotation Yrotation Zrotation
						JOINT RightToe_End
						{
							OFFSET -2.754700 0.931300 11.300900
							CHANNELS 3 Xrotation Yrotation Zrotation
							End Site
							{
								OFFSET 0 0 0
							}
						}
					}
				}
			}
		}
	}
	JOINT Spine_virtual
	{
		OFFSET 0.000000 0.000000 0.000000
		CHANNELS 3 Xrotation Yrotation Zrotation
		JOINT Spine
		{
			OFFSET -0.279200 12.230698 -2.892100
			CHANNELS 3 Xrotation Yrotation Zrotation
			JOINT Spine1
			{
				OFFSET -0.232667 10.192268 -1.242267
				CHANNELS 3 Xrotation Yrotation Zrotation
				JOINT Spine1_split
				{
					OFFSET -0.232667 10.192268 -1.242267
					CHANNELS 3 Xrotation Yrotation Zrotation
					JOINT Spine2
					{
						OFFSET -0.232667 10.192268 -1.242267
						CHANNELS 3 Xrotation Yrotation Zrotation
						JOINT Neck_virtual
						{
							OFFSET 0.000000 0.000000 0.000000
							CHANNELS 3 Xrotation Yrotation Zrotation
							JOINT Neck
							{
								OFFSET -0.418800 17.814194 8.416900
								CHANNELS 3 Xrotation Yrotation Zrotation
								JOINT Head
								{
									OFFSET 0.000000 7.031097 3.806800
									CHANNELS 3 Xrotation Yrotation Zrotation
									JOINT HeadTop_End
									{
										OFFSET 0.000000 24.646606 12.978600
										CHANNELS 3 Xrotation Yrotation Zrotation
										End Site
										{
											OFFSET 0 0 0
										}
									}
								}
							}
						}
						JOINT LeftShoulder_virtual
						{
							OFFSET 0.000000 0.000000 0.000000
							CHANNELS 3 Xrotation Yrotation Zrotation
							JOINT LeftShoulder
							{
								OFFSET 8.476499 7.247704 -3.868750
								CHANNELS 3 Xrotation Yrotation Zrotation
								JOINT LeftShoulder_split
								{
									OFFSET 8.476499 7.247704 -3.868750
									CHANNELS 3 Xrotation Yrotation Zrotation
									JOINT LeftArm
									{
										OFFSET 9.308998 -2.777710 0.208600
										CHANNELS 3 Xrotation Yrotation Zrotation
										JOINT LeftForeArm
										{
											OFFSET 29.972298 0.000000 0.000000
											CHANNELS 3 Xrotation Yrotation Zrotation
											JOINT LeftHand
											{
												OFFSET 26.026505 0.000000 0.000000
												CHANNELS 3 Xrotation Yrotation Zrotation
												End Site
												{
													OFFSET 0 0 0
												}
											}
										}
									}
								}
							}
						}
						JOINT RightShoulder_virtual
						{
							OFFSET 0.000000 0.000000 0.000000
							CHANNELS 3 Xrotation Yrotation Zrotation
							JOINT RightShoulder
							{
								OFFSET -7.570500 7.247704 -3.868750
								CHANNELS 3 Xrotation Yrotation Zrotation
								JOINT RightShoulder_split
								{
									OFFSET -7.570500 7.247704 -3.868750
									CHANNELS 3 Xrotation Yrotation Zrotation
									JOINT RightArm
									{
										OFFSET -9.308998 -2.777710 0.208500
										CHANNELS 3 Xrotation Yrotation Zrotation
										JOINT RightForeArm
										{
											OFFSET -29.972300 0.000000 0.000000
											CHANNELS 3 Xrotation Yrotation Zrotation
											JOINT RightHand
											{
												OFFSET -26.026505 0.000000 0.000000
												CHANNELS 3 Xrotation Yrotation Zrotation
												End Site
												{
													OFFSET 0 0 0
												}
											}
										}
									}
								}
							}
						}
					}
				}
			}
		}
	}
}
MOTION
Frames: 12
Frame Time: 0.03333333
7.004688 95.579468 -6.021414 0.000000 0.000000 0.000000 -2.503548 6.535378 -1.381498 -9.542578 9.402884 9.109670 16.449402 -2.564322 4.114498 -6.479077 6.318523 -15.209919 1.863420 -3.372402 -1.278626 0.000000 0.000000 0.000000 -2.251714 7.422652 -1.600425 -5.339495 -1.866875 -1.294146 10.257506 3.100629 3.653246 -5.176246 -5.256555 5.433438 2.380185 0.022822 -8.174475 0.000000 0.000000 0.000000 -3.308722 10.941143 -2.075946 2.266290 -3.560990 2.357834 4.141757 -0.740392 0.377726 0.163110 -0.568472 0.118597 0.000000 0.000000 0.000000 4.037341 0.850901 0.525004 -6.020626 7.503274 6.990683 7.046090 -7.856626 -4.660964 0.000000 0.000000 0.000000 3.566183 -0.597718 0.524838 1.447928 -4.377281 -1.341408 1.694834 -2.899331 -1.009414 0.832136 9.570330 -82.054034 15.493878 -23.511970 8.225551 0.000000 0.000000 0.000000 3.843472 -0.358602 0.931142 1.948157 -0.995680 5.161340 -6.954539 -0.436863 -1.383684 -2.310993 12.788844 75.469608 1.498340 12.829713 -0.180503 0.000000 0.000000 0.000000 
6.864985 95.555542 -5.895353 0.000000 0.000000 0.000000 -2.507391 6.493501 -1.425411 -9.431761 9.380964 9.182324 16.463172 -2.664693 4.122640 -6.473982 6.377168 -15.204614 1.807200 -3.375469 -1.248827 0.000000 0.000000 0.000000 -2.217838 7.203727 -1.642502 -5.280116 -1.836135 -1.210590 10.372330 3.163185 3.584820 -5.289851 -5.101886 5.014248 2.750295 -0.021006 -8.009398 0.000000 0.000000 0.000000 -3.165569 10.962478 -1.988775 2.348552 -3.588785 2.255646 4.058941 -0.768638 0.381331 0.165691 -0.639837 0.097420 0.000000 0.000000 0.000000 4.036606 0.848568 0.526227 -5.951111 7.530535 6.932999 7.319530 -7.836406 -4.714337 0.000000 0.000000 0.000000 3.515651 -0.620451 0.529075 1.481638 -4.434213 -1.437024 1.609705 -2.638694 -1.084081 0.771943 9.464708 -81.977126 15.510554 -23.648876 8.175399 0.000000 0.000000 0.000000 3.797344 -0.367504 0.959316 2.003192 -0.984043 5.193235 -6.951695 -0.253588 -1.350578 -2.083258 12.710396 75.456542 1.454134 12.926429 -0.182432 0.000000 0.000000 0.000000 
6.683251 95.495895 -5.759909 0.000000 0.000000 0.000000 -2.504816 6.208268 -1.448324 -9.108505 9.324328 9.268199 16.394230 -2.790753 4.161304 -6.756433 6.573133 -14.910443 1.602381 -3.396299 -1.203453 0.000000 0.000000 0.000000 -2.146235 6.829407 -1.658011 -5.397502 -1.803978 -1.186054 10.526893 3.297041 3.509158 -5.375399 -4.744451 4.575569 2.778679 -0.053536 -7.972408 0.000000 0.000000 0.000000 -3.019976 10.737945 -1.879671 2.633903 -3.669041 2.058671 3.882418 -0.768837 0.403200 0.159675 -0.693157 0.077999 0.000000 0.000000 0.000000 3.949664 0.866043 0.548704 -5.828077 7.627939 6.855892 7.712346 -7.677300 -4.726190 0.000000 0.000000 0.000000 3.368772 -0.625178 0.550941 1.513332 -4.506150 -1.624424 1.555597 -2.431574 -1.218814 0.726654 9.182359 -81.797895 15.535716 -23.804821 8.039161 0.000000 0.000000 0.000000 3.622044 -0.365495 1.006453 2.062248 -0.860164 5.278365 -6.849266 -0.130953 -1.378202 -1.671335 12.909227 75.323463 1.363054 13.190105 -0.140929 0.000000 0.000000 0.000000 
6.466786 95.397461 -5.595572 0.000000 0.000000 0.000000 -2.466056 5.773645 -1.443369 -8.693721 9.248437 9.403676 16.277087 -2.894700 4.180407 -7.244391 6.968848 -14.398283 1.880580 -3.424839 -1.272921 0.000000 0.000000 0.000000 -2.030789 6.320441 -1.653261 -5.692389 -1.799206 -1.208266 10.749170 3.490789 3.471033 -5.340851 -4.232760 4.239138 2.436138 -0.082851 -8.060988 0.000000 0.000000 0.000000 -2.877993 10.228511 -1.778873 3.085539 -3.785812 1.793488 3.626072 -0.751502 0.445279 0.146803 -0.726768 0.071364 0.000000 0.000000 0.000000 3.790937 0.898707 0.594453 -5.645152 7.789574 6.758636 8.152815 -7.379623 -4.666609 0.000000 0.000000 0.000000 3.154586 -0.614145 0.595014 1.546763 -4.547484 -1.863453 1.493752 -2.293820 -1.355869 0.706080 8.811126 -81.560143 15.592953 -23.978766 7.855960 0.000000 0.000000 0.000000 3.340488 -0.356994 1.072215 2.127078 -0.677956 5.404115 -6.723899 -0.163958 -1.441750 -1.151453 13.348656 75.087166 1.240322 13.629890 -0.065935 0.000000 0.000000 0.000000 
6.200679 95.304047 -5.398439 0.000000 0.000000 0.000000 -2.337364 5.220749 -1.457342 -8.325670 9.261909 9.635040 16.051797 -2.971674 4.089396 -7.692928 7.506592 -14.007558 2.755004 -3.452493 -1.448550 0.000000 0.000000 0.000000 -1.855811 5.649310 -1.637203 -6.135097 -1.793920 -1.251020 11.008190 3.726431 3.505695 -5.169680 -3.600582 4.041037 1.955446 -0.123978 -8.247456 0.000000 0.000000 0.000000 -2.732271 9.434311 -1.719712 3.607152 -3.914472 1.507262 3.316183 -0.734368 0.506228 0.158548 -0.736679 0.075006 0.000000 0.000000 0.000000 3.576369 0.934693 0.655609 -5.407244 8.004628 6.660632 8.625547 -6.925807 -4.514860 0.000000 0.000000 0.000000 2.911374 -0.596891 0.661031 1.574370 -4.506627 -2.123428 1.407026 -2.288428 -1.432754 0.688753 8.475139 -81.313600 15.712060 -24.141394 7.683979 0.000000 0.000000 0.000000 3.008438 -0.349983 1.152194 2.204869 -0.511414 5.549589 -6.580769 -0.287152 -1.586024 -0.599898 13.989070 74.756168 1.110784 14.203316 0.016116 0.000000 0.000000 0.000000 
5.856453 95.226532 -5.185957 0.000000 0.000000 0.000000 -2.093760 4.513092 -1.518461 -7.984362 9.398207 9.948550 15.634342 -3.026760 3.867604 -7.935845 8.179563 -13.919572 3.694749 -3.498524 -1.536836 0.000000 0.000000 0.000000 -1.625741 4.861943 -1.659420 -6.655048 -1.726491 -1.223838 11.253350 3.957720 3.618642 -5.028167 -2.901618 3.869300 1.692549 -0.188907 -8.468176 0.000000 0.000000 0.000000 -2.544526 8.403995 -1.724208 4.083288 -4.021574 1.255164 2.983230 -0.737043 0.576949 0.190000 -0.745525 0.094692 0.000000 0.000000 0.000000 3.330441 0.956122 0.719952 -5.140772 8.251546 6.592443 9.127923 -6.312334 -4.281584 0.000000 0.000000 0.000000 2.661353 -0.589933 0.736512 1.588018 -4.368756 -2.364230 1.379781 -2.355090 -1.427689 0.642593 8.269485 -81.115846 15.905923 -24.203919 7.548686 0.000000 0.000000 0.000000 2.674678 -0.356208 1.232686 2.299113 -0.412696 5.710532 -6.495366 -0.477865 -1.730519 -0.079226 14.755644 74.341206 1.015468 14.829927 0.068075 0.000000 0.000000 0.000000 
5.391960 95.132561 -4.923573 0.000000 0.000000 0.000000 -1.740931 3.645490 -1.636527 -7.654280 9.672928 10.308268 15.056807 -2.904145 3.602641 -8.223288 9.084712 -13.918939 4.443875 -3.595138 -1.441930 0.000000 0.000000 0.000000 -1.303866 3.950692 -1.752793 -7.156267 -1.505189 -1.028391 11.461602 4.102107 3.763213 -5.101771 -2.205030 3.514259 1.908233 -0.275613 -8.659590 0.000000 0.000000 0.000000 -2.260807 7.217683 -1.804552 4.425035 -4.096686 1.082732 2.654422 -0.777681 0.636390 0.201539 -0.771388 0.118890 0.000000 0.000000 0.000000 3.083573 0.944605 0.770652 -4.881331 8.507404 6.569530 9.673172 -5.596557 -3.985506 0.000000 0.000000 0.000000 2.427790 -0.607601 0.805305 1.582433 -4.135035 -2.561789 1.441606 -2.474478 -1.405361 0.579730 8.231753 -80.975294 16.172054 -24.092166 7.436723 0.000000 0.000000 0.000000 2.366411 -0.394426 1.292509 2.403936 -0.418127 5.917933 -6.477445 -0.681707 -1.771698 0.408876 15.601544 73.860129 0.998231 15.427743 0.051332 0.000000 0.000000 0.000000 
4.820360 95.014519 -4.586617 0.000000 0.000000 0.000000 -1.343248 2.612138 -1.833443 -7.374746 10.023376 10.700479 14.537527 -2.539086 3.407556 -8.607637 10.259631 -14.052501 5.291187 -3.747142 -1.247329 0.000000 0.000000 0.000000 -0.888328 2.947360 -1.920387 -7.576287 -1.024419 -0.618342 11.583758 4.120030 3.884457 -5.393981 -1.558664 2.968898 2.509857 -0.369768 -8.810907 0.000000 0.000000 0.000000 -1.892043 5.946859 -1.951520 4.600343 -4.134378 1.018481 2.353781 -0.865004 0.667873 0.204078 -0.815053 0.144430 0.000000 0.000000 0.000000 2.845754 0.884322 0.787629 -4.660250 8.769148 6.607196 10.264301 -4.784544 -3.674782 0.000000 0.000000 0.000000 2.215300 -0.665414 0.853215 1.557355 -3.829456 -2.691585 1.566167 -2.731590 -1.397981 0.526980 8.343295 -80.866530 16.464897 -23.752621 7.296019 0.000000 0.000000 0.000000 2.095754 -0.481528 1.310327 2.501943 -0.548055 6.193292 -6.490870 -0.752835 -1.657147 0.892609 16.455754 73.322122 1.085709 15.910955 -0.057523 0.000000 0.000000 0.000000 
4.153795 94.863693 -4.179819 0.000000 0.000000 0.000000 -0.940474 1.460996 -2.083806 -7.129614 10.383654 11.112937 14.224269 -1.931836 3.387108 -9.214732 11.718243 -14.333739 6.356526 -3.971963 -1.005307 0.000000 0.000000 0.000000 -0.410831 1.851097 -2.140902 -7.963100 -0.226611 -0.030968 11.611805 4.070713 3.959076 -5.689547 -0.968928 2.520572 2.986603 -0.441039 -8.958766 0.000000 0.000000 0.000000 -1.461826 4.627186 -2.137732 4.657184 -4.151333 1.063457 2.090631 -0.997420 0.665911 0.192062 -0.844574 0.155431 0.000000 0.000000 0.000000 2.618192 0.765323 0.766199 -4.500865 9.044332 6.688984 10.879421 -3.908043 -3.392948 0.000000 0.000000 0.000000 2.025491 -0.772871 0.875915 1.522218 -3.488105 -2.734125 1.679758 -3.135472 -1.411716 0.537943 8.499616 -80.753122 16.713580 -23.219291 7.066418 0.000000 0.000000 0.000000 1.864777 -0.620703 1.284357 2.580666 -0.782649 6.594202 -6.604924 -0.690100 -1.455009 1.402843 17.229770 72.766827 1.287880 16.249133 -0.248753 0.000000 0.000000 0.000000 
3.397501 94.669128 -3.690533 0.000000 0.000000 0.000000 -0.553006 0.235015 -2.329658 -6.789065 10.576562 11.442958 14.049410 -1.167154 3.562623 -10.064285 13.301511 -14.922519 7.154165 -4.249786 -0.640286 0.000000 0.000000 0.000000 0.055771 0.610576 -2.359373 -8.386749 0.890125 0.690740 11.721217 4.014184 3.986797 -5.791821 -0.467176 2.394486 3.061948 -0.484241 -9.117545 0.000000 0.000000 0.000000 -1.016790 3.311623 -2.338766 4.698497 -4.169269 1.174698 1.862077 -1.172339 0.634422 0.173333 -0.843534 0.159369 0.000000 0.000000 0.000000 2.397984 0.594757 0.720752 -4.423995 9.358337 6.790674 11.467151 -2.960033 -3.165565 0.000000 0.000000 0.000000 1.861689 -0.928268 0.882043 1.484717 -3.128722 -2.710643 1.746275 -3.667407 -1.432690 0.642462 8.609847 -80.568775 16.862251 -22.633666 6.718544 0.000000 0.000000 0.000000 1.653845 -0.813092 1.225630 2.618365 -1.101441 7.113719 -6.724737 -0.580988 -1.214359 1.908496 17.873570 72.238184 1.592688 16.506134 -0.497359 0.000000 0.000000 0.000000 
2.580106 94.409691 -3.191755 0.000000 0.000000 0.000000 -0.265176 -1.058413 -2.533503 -6.358283 10.490187 11.755485 14.024135 -0.504483 3.827669 -10.754563 14.760037 -16.305642 6.974501 -4.518692 -0.021031 0.000000 0.000000 0.000000 0.404011 -0.787711 -2.544451 -8.908003 2.215968 1.524791 12.072861 3.974994 4.004979 -5.803561 -0.126917 2.533401 3.001398 -0.532693 -9.236437 0.000000 0.000000 0.000000 -0.625508 2.057364 -2.531594 4.834309 -4.208431 1.282531 1.669594 -1.371584 0.591685 0.164347 -0.829213 0.164491 0.000000 0.000000 0.000000 2.179626 0.389425 0.676043 -4.446215 9.707732 6.906224 11.964694 -1.986151 -2.995652 0.000000 0.000000 0.000000 1.719666 -1.118002 0.879439 1.456350 -2.788411 -2.631980 1.711401 -4.200326 -1.462724 0.836629 8.644165 -80.278021 16.908693 -22.155452 6.288090 0.000000 0.000000 0.000000 1.453957 -1.042009 1.150048 2.595769 -1.491074 7.710846 -6.853165 -0.474649 -0.981872 2.391040 18.414965 71.774312 1.986021 16.788386 -0.770614 0.000000 0.000000 0.000000 
1.718923 94.058861 -2.703672 0.000000 0.000000 0.000000 -0.124971 -2.435909 -2.682911 -5.875646 10.232393 12.002381 14.283882 0.297264 4.050316 -11.384358 16.122438 -17.829724 6.049218 -4.786425 0.646670 0.000000 0.000000 0.000000 0.560512 -2.359959 -2.687433 -9.539402 3.605986 2.446805 12.680423 3.934102 4.017646 -6.108409 0.003471 2.678439 3.225146 -0.607436 -9.282119 0.000000 0.000000 0.000000 -0.319191 0.867784 -2.681454 5.132332 -4.273807 1.325576 1.502600 -1.573371 0.553337 0.160437 -0.805145 0.161526 0.000000 0.000000 0.000000 1.973982 0.172825 0.653588 -4.567502 10.077080 7.042210 12.329338 -1.088256 -2.849177 0.000000 0.000000 0.000000 1.598800 -1.320168 0.875280 1.445424 -2.490490 -2.496207 1.614360 -4.685242 -1.479689 1.109914 8.628615 -79.864555 16.899807 -21.984156 5.862375 0.000000 0.000000 0.000000 1.271503 -1.278651 1.080151 2.502886 -1.922830 8.340012 -6.996993 -0.412360 -0.821462 2.884342 18.970646 71.373373 2.450827 17.187280 -1.029158 0.000000 0.000000 0.000000 
